<svg width="24" height="24" viewBox="0 0 24 24" fill="none" xmlns="http://www.w3.org/2000/svg">
    <path d="M12 23C18.0751 23 23 18.0751 23 12C23 5.92487 18.0751 1 12 1C5.92487 1 1 5.92487 1 12C1 18.0751 5.92487 23 12 23Z" fill="white" stroke="#A0A0A0" stroke-width="1.5" stroke-linecap="round" stroke-linejoin="round" />
    <path fill-rule="evenodd" clip-rule="evenodd" d="M15.5659 7.24619C15.8936 6.91765 16.4257 6.91765 16.7542 7.24619C17.0827 7.57394 17.0827 8.10674 16.7542 8.43445L13.1711 12.0176L16.7042 15.5507C17.0302 15.8759 17.0302 16.4037 16.7042 16.7298C16.379 17.0558 15.8511 17.0558 15.5251 16.7298L11.992 13.1967L8.43466 16.754C8.10696 17.0817 7.57493 17.0817 7.2464 16.754C6.91787 16.4262 6.91787 15.8942 7.2464 15.5657L10.8037 12.0084L7.27056 8.4753C6.94451 8.15013 6.94451 7.62229 7.27056 7.29624C7.59573 6.97019 8.12357 6.97019 8.44962 7.29624L11.9827 10.8293L15.5659 7.24619Z" fill="#999999" />
</svg>
